<svg width="326" height="48" viewBox="0 0 326 48" fill="none" xmlns="http://www.w3.org/2000/svg">
<path d="M32.9636 19.144C32.9636 17.2027 33.3836 15.476 34.2236 13.964C35.0636 12.4333 36.2302 11.248 37.7236 10.408C39.2356 9.54933 40.9436 9.12 42.8476 9.12C45.1809 9.12 47.1782 9.736 48.8396 10.968C50.5009 12.2 51.6116 13.88 52.1716 16.008H46.9076C46.5156 15.1867 45.9556 14.5613 45.2276 14.132C44.5182 13.7027 43.7062 13.488 42.7916 13.488C41.3169 13.488 40.1222 14.0013 39.2076 15.028C38.2929 16.0547 37.8356 17.4267 37.8356 19.144C37.8356 20.8613 38.2929 22.2333 39.2076 23.26C40.1222 24.2867 41.3169 24.8 42.7916 24.8C43.7062 24.8 44.5182 24.5853 45.2276 24.156C45.9556 23.7267 46.5156 23.1013 46.9076 22.28H52.1716C51.6116 24.408 50.5009 26.088 48.8396 27.32C47.1782 28.5333 45.1809 29.14 42.8476 29.14C40.9436 29.14 39.2356 28.72 37.7236 27.88C36.2302 27.0213 35.0636 25.836 34.2236 24.324C33.3836 22.812 32.9636 21.0853 32.9636 19.144ZM54.1517 21.16C54.1517 19.5547 54.4503 18.1453 55.0477 16.932C55.6637 15.7187 56.4943 14.7853 57.5397 14.132C58.585 13.4787 59.7517 13.152 61.0397 13.152C62.141 13.152 63.1023 13.376 63.9237 13.824C64.7637 14.272 65.4077 14.86 65.8557 15.588V13.376H70.6437V29H65.8557V26.788C65.389 27.516 64.7357 28.104 63.8957 28.552C63.0743 29 62.113 29.224 61.0117 29.224C59.7423 29.224 58.585 28.8973 57.5397 28.244C56.4943 27.572 55.6637 26.6293 55.0477 25.416C54.4503 24.184 54.1517 22.7653 54.1517 21.16ZM65.8557 21.188C65.8557 19.9933 65.5197 19.0507 64.8477 18.36C64.1943 17.6693 63.3917 17.324 62.4397 17.324C61.4877 17.324 60.6757 17.6693 60.0037 18.36C59.3503 19.032 59.0237 19.9653 59.0237 21.16C59.0237 22.3547 59.3503 23.3067 60.0037 24.016C60.6757 24.7067 61.4877 25.052 62.4397 25.052C63.3917 25.052 64.1943 24.7067 64.8477 24.016C65.5197 23.3253 65.8557 22.3827 65.8557 21.188ZM78.8956 15.588C79.3436 14.86 79.9876 14.272 80.8276 13.824C81.6676 13.376 82.6289 13.152 83.7116 13.152C84.9996 13.152 86.1662 13.4787 87.2116 14.132C88.2569 14.7853 89.0782 15.7187 89.6756 16.932C90.2916 18.1453 90.5996 19.5547 90.5996 21.16C90.5996 22.7653 90.2916 24.184 89.6756 25.416C89.0782 26.6293 88.2569 27.572 87.2116 28.244C86.1662 28.8973 84.9996 29.224 83.7116 29.224C82.6102 29.224 81.6489 29.0093 80.8276 28.58C80.0062 28.132 79.3622 27.544 78.8956 26.816V29H74.1076V8.28H78.8956V15.588ZM85.7276 21.16C85.7276 19.9653 85.3916 19.032 84.7196 18.36C84.0662 17.6693 83.2542 17.324 82.2836 17.324C81.3316 17.324 80.5196 17.6693 79.8476 18.36C79.1942 19.0507 78.8676 19.9933 78.8676 21.188C78.8676 22.3827 79.1942 23.3253 79.8476 24.016C80.5196 24.7067 81.3316 25.052 82.2836 25.052C83.2356 25.052 84.0476 24.7067 84.7196 24.016C85.3916 23.3067 85.7276 22.3547 85.7276 21.16ZM92.1595 21.16C92.1595 19.5547 92.4582 18.1453 93.0555 16.932C93.6715 15.7187 94.5022 14.7853 95.5475 14.132C96.5928 13.4787 97.7595 13.152 99.0475 13.152C100.149 13.152 101.11 13.376 101.931 13.824C102.771 14.272 103.415 14.86 103.863 15.588V13.376H108.651V29H103.863V26.788C103.397 27.516 102.743 28.104 101.903 28.552C101.082 29 100.121 29.224 99.0195 29.224C97.7502 29.224 96.5928 28.8973 95.5475 28.244C94.5022 27.572 93.6715 26.6293 93.0555 25.416C92.4582 24.184 92.1595 22.7653 92.1595 21.16ZM103.863 21.188C103.863 19.9933 103.527 19.0507 102.855 18.36C102.202 17.6693 101.399 17.324 100.447 17.324C99.4955 17.324 98.6835 17.6693 98.0115 18.36C97.3582 19.032 97.0315 19.9653 97.0315 21.16C97.0315 22.3547 97.3582 23.3067 98.0115 24.016C98.6835 24.7067 99.4955 25.052 100.447 25.052C101.399 25.052 102.202 24.7067 102.855 24.016C103.527 23.3253 103.863 22.3827 103.863 21.188ZM121.635 13.208C123.465 13.208 124.921 13.8053 126.003 15C127.105 16.176 127.655 17.8 127.655 19.872V29H122.895V20.516C122.895 19.4707 122.625 18.6587 122.083 18.08C121.542 17.5013 120.814 17.212 119.899 17.212C118.985 17.212 118.257 17.5013 117.715 18.08C117.174 18.6587 116.903 19.4707 116.903 20.516V29H112.115V13.376H116.903V15.448C117.389 14.7573 118.042 14.216 118.863 13.824C119.685 13.4133 120.609 13.208 121.635 13.208ZM114.887 12.06C115.335 9.29733 116.623 7.916 118.751 7.916C119.162 7.916 119.517 7.98133 119.815 8.112C120.133 8.224 120.515 8.40133 120.963 8.644C121.299 8.83067 121.57 8.97067 121.775 9.064C121.981 9.13867 122.195 9.176 122.419 9.176C123.11 9.176 123.511 8.756 123.623 7.916H126.087C125.639 10.6787 124.351 12.06 122.223 12.06C121.813 12.06 121.449 12.004 121.131 11.892C120.833 11.7613 120.459 11.5747 120.011 11.332C119.675 11.1453 119.405 11.0147 119.199 10.94C118.994 10.8467 118.779 10.8 118.555 10.8C117.865 10.8 117.454 11.22 117.323 12.06H114.887ZM130.031 21.16C130.031 19.5547 130.329 18.1453 130.927 16.932C131.543 15.7187 132.373 14.7853 133.419 14.132C134.464 13.4787 135.631 13.152 136.919 13.152C138.02 13.152 138.981 13.376 139.803 13.824C140.643 14.272 141.287 14.86 141.735 15.588V13.376H146.523V29H141.735V26.788C141.268 27.516 140.615 28.104 139.775 28.552C138.953 29 137.992 29.224 136.891 29.224C135.621 29.224 134.464 28.8973 133.419 28.244C132.373 27.572 131.543 26.6293 130.927 25.416C130.329 24.184 130.031 22.7653 130.031 21.16ZM141.735 21.188C141.735 19.9933 141.399 19.0507 140.727 18.36C140.073 17.6693 139.271 17.324 138.319 17.324C137.367 17.324 136.555 17.6693 135.883 18.36C135.229 19.032 134.903 19.9653 134.903 21.16C134.903 22.3547 135.229 23.3067 135.883 24.016C136.555 24.7067 137.367 25.052 138.319 25.052C139.271 25.052 140.073 24.7067 140.727 24.016C141.399 23.3253 141.735 22.3827 141.735 21.188ZM156.342 29.224C154.98 29.224 153.766 28.9907 152.702 28.524C151.638 28.0573 150.798 27.4227 150.182 26.62C149.566 25.7987 149.221 24.884 149.146 23.876H153.878C153.934 24.4173 154.186 24.856 154.634 25.192C155.082 25.528 155.633 25.696 156.286 25.696C156.884 25.696 157.341 25.584 157.658 25.36C157.994 25.1173 158.162 24.8093 158.162 24.436C158.162 23.988 157.929 23.6613 157.462 23.456C156.996 23.232 156.24 22.9893 155.194 22.728C154.074 22.4667 153.141 22.196 152.394 21.916C151.648 21.6173 151.004 21.16 150.462 20.544C149.921 19.9093 149.65 19.06 149.65 17.996C149.65 17.1 149.893 16.288 150.378 15.56C150.882 14.8133 151.61 14.2253 152.562 13.796C153.533 13.3667 154.681 13.152 156.006 13.152C157.966 13.152 159.506 13.6373 160.626 14.608C161.765 15.5787 162.418 16.8667 162.586 18.472H158.162C158.088 17.9307 157.845 17.5013 157.434 17.184C157.042 16.8667 156.52 16.708 155.866 16.708C155.306 16.708 154.877 16.82 154.578 17.044C154.28 17.2493 154.13 17.5387 154.13 17.912C154.13 18.36 154.364 18.696 154.83 18.92C155.316 19.144 156.062 19.368 157.07 19.592C158.228 19.8907 159.17 20.1893 159.898 20.488C160.626 20.768 161.261 21.2347 161.802 21.888C162.362 22.5227 162.652 23.3813 162.67 24.464C162.67 25.3787 162.409 26.2 161.886 26.928C161.382 27.6373 160.645 28.1973 159.674 28.608C158.722 29.0187 157.612 29.224 156.342 29.224ZM178.645 29.196C177.208 29.196 175.92 28.9627 174.781 28.496C173.643 28.0293 172.728 27.3387 172.037 26.424C171.365 25.5093 171.011 24.408 170.973 23.12H176.069C176.144 23.848 176.396 24.408 176.825 24.8C177.255 25.1733 177.815 25.36 178.505 25.36C179.215 25.36 179.775 25.2013 180.185 24.884C180.596 24.548 180.801 24.0907 180.801 23.512C180.801 23.0267 180.633 22.6253 180.297 22.308C179.98 21.9907 179.579 21.7293 179.093 21.524C178.627 21.3187 177.955 21.0853 177.077 20.824C175.808 20.432 174.772 20.04 173.969 19.648C173.167 19.256 172.476 18.6773 171.897 17.912C171.319 17.1467 171.029 16.148 171.029 14.916C171.029 13.0867 171.692 11.6587 173.017 10.632C174.343 9.58667 176.069 9.064 178.197 9.064C180.363 9.064 182.108 9.58667 183.433 10.632C184.759 11.6587 185.468 13.096 185.561 14.944H180.381C180.344 14.3093 180.111 13.8147 179.681 13.46C179.252 13.0867 178.701 12.9 178.029 12.9C177.451 12.9 176.984 13.0587 176.629 13.376C176.275 13.6747 176.097 14.1133 176.097 14.692C176.097 15.3267 176.396 15.8213 176.993 16.176C177.591 16.5307 178.524 16.9133 179.793 17.324C181.063 17.7533 182.089 18.164 182.873 18.556C183.676 18.948 184.367 19.5173 184.945 20.264C185.524 21.0107 185.813 21.972 185.813 23.148C185.813 24.268 185.524 25.2853 184.945 26.2C184.385 27.1147 183.564 27.8427 182.481 28.384C181.399 28.9253 180.12 29.196 178.645 29.196ZM198.364 13.208C200.156 13.208 201.593 13.8053 202.676 15C203.759 16.176 204.3 17.8 204.3 19.872V29H199.54V20.516C199.54 19.4707 199.269 18.6587 198.728 18.08C198.187 17.5013 197.459 17.212 196.544 17.212C195.629 17.212 194.901 17.5013 194.36 18.08C193.819 18.6587 193.548 19.4707 193.548 20.516V29H188.76V8.28H193.548V15.476C194.033 14.7853 194.696 14.2347 195.536 13.824C196.376 13.4133 197.319 13.208 198.364 13.208ZM206.675 21.16C206.675 19.5547 206.974 18.1453 207.571 16.932C208.187 15.7187 209.018 14.7853 210.063 14.132C211.108 13.4787 212.275 13.152 213.563 13.152C214.664 13.152 215.626 13.376 216.447 13.824C217.287 14.272 217.931 14.86 218.379 15.588V13.376H223.167V29H218.379V26.788C217.912 27.516 217.259 28.104 216.419 28.552C215.598 29 214.636 29.224 213.535 29.224C212.266 29.224 211.108 28.8973 210.063 28.244C209.018 27.572 208.187 26.6293 207.571 25.416C206.974 24.184 206.675 22.7653 206.675 21.16ZM218.379 21.188C218.379 19.9933 218.043 19.0507 217.371 18.36C216.718 17.6693 215.915 17.324 214.963 17.324C214.011 17.324 213.199 17.6693 212.527 18.36C211.874 19.032 211.547 19.9653 211.547 21.16C211.547 22.3547 211.874 23.3067 212.527 24.016C213.199 24.7067 214.011 25.052 214.963 25.052C215.915 25.052 216.718 24.7067 217.371 24.016C218.043 23.3253 218.379 22.3827 218.379 21.188ZM242.059 13.376V29H237.271V26.872C236.786 27.5627 236.123 28.1227 235.283 28.552C234.462 28.9627 233.547 29.168 232.539 29.168C231.344 29.168 230.29 28.9067 229.375 28.384C228.46 27.8427 227.751 27.068 227.247 26.06C226.743 25.052 226.491 23.8667 226.491 22.504V13.376H231.251V21.86C231.251 22.9053 231.522 23.7173 232.063 24.296C232.604 24.8747 233.332 25.164 234.247 25.164C235.18 25.164 235.918 24.8747 236.459 24.296C237 23.7173 237.271 22.9053 237.271 21.86V13.376H242.059ZM254.206 24.94V29H251.77C250.034 29 248.681 28.58 247.71 27.74C246.74 26.8813 246.254 25.4907 246.254 23.568V17.352H244.35V13.376H246.254V9.568H251.042V13.376H254.178V17.352H251.042V23.624C251.042 24.0907 251.154 24.4267 251.378 24.632C251.602 24.8373 251.976 24.94 252.498 24.94H254.206ZM259.281 11.752C258.441 11.752 257.751 11.5093 257.209 11.024C256.687 10.52 256.425 9.904 256.425 9.176C256.425 8.42933 256.687 7.81333 257.209 7.328C257.751 6.824 258.441 6.572 259.281 6.572C260.103 6.572 260.775 6.824 261.297 7.328C261.839 7.81333 262.109 8.42933 262.109 9.176C262.109 9.904 261.839 10.52 261.297 11.024C260.775 11.5093 260.103 11.752 259.281 11.752ZM261.661 13.376V29H256.873V13.376H261.661ZM264.179 21.16C264.179 19.5547 264.478 18.1453 265.075 16.932C265.691 15.7187 266.522 14.7853 267.567 14.132C268.612 13.4787 269.779 13.152 271.067 13.152C272.168 13.152 273.13 13.376 273.951 13.824C274.791 14.272 275.435 14.86 275.883 15.588V13.376H280.671V29H275.883V26.788C275.416 27.516 274.763 28.104 273.923 28.552C273.102 29 272.14 29.224 271.039 29.224C269.77 29.224 268.612 28.8973 267.567 28.244C266.522 27.572 265.691 26.6293 265.075 25.416C264.478 24.184 264.179 22.7653 264.179 21.16ZM275.883 21.188C275.883 19.9933 275.547 19.0507 274.875 18.36C274.222 17.6693 273.419 17.324 272.467 17.324C271.515 17.324 270.703 17.6693 270.031 18.36C269.378 19.032 269.051 19.9653 269.051 21.16C269.051 22.3547 269.378 23.3067 270.031 24.016C270.703 24.7067 271.515 25.052 272.467 25.052C273.419 25.052 274.222 24.7067 274.875 24.016C275.547 23.3253 275.883 22.3827 275.883 21.188ZM299.563 13.376V29H294.775V26.872C294.29 27.5627 293.627 28.1227 292.787 28.552C291.966 28.9627 291.051 29.168 290.043 29.168C288.848 29.168 287.794 28.9067 286.879 28.384C285.964 27.8427 285.255 27.068 284.751 26.06C284.247 25.052 283.995 23.8667 283.995 22.504V13.376H288.755V21.86C288.755 22.9053 289.026 23.7173 289.567 24.296C290.108 24.8747 290.836 25.164 291.751 25.164C292.684 25.164 293.422 24.8747 293.963 24.296C294.504 23.7173 294.775 22.9053 294.775 21.86V13.376H299.563Z" fill="#1F2A2D" fill-opacity="0.9"/>
<path d="M23.7056 8.72849C23.2786 8.30144 22.8515 7.87439 21.5639 7.22735C20.2763 6.5803 18.141 5.7262 14.647 3.55212" stroke="#DA8836" stroke-width="6" stroke-linecap="round"/>
<path d="M24.9996 20.3754C24.1455 20.3754 23.2914 20.3754 20.5026 20.3754C17.7138 20.3754 13.0163 20.3754 9.95575 20.5889C6.89522 20.8024 5.61407 21.2295 3 21.6695" stroke="#DA8836" stroke-width="6" stroke-linecap="round"/>
<path d="M23.7056 28.1399C23.2785 28.5669 22.8515 28.994 20.9233 30.9222C18.9951 32.8504 15.5787 36.2668 13.6052 38.6673C11.6317 41.0679 11.2046 42.349 10.7646 44.9631" stroke="#DA8836" stroke-width="6" stroke-linecap="round"/>
<path d="M308.406 12.6108C308.833 12.1837 309.26 11.7567 310.547 10.6826C311.835 9.60847 313.97 7.90027 318.758 3.55212" stroke="#DA8836" stroke-width="6" stroke-linecap="round"/>
<path d="M310.994 21.6694H322.64" stroke="#DA8836" stroke-width="6" stroke-linecap="round"/>
<path d="M308.406 30.728C308.833 30.728 309.26 30.728 310.975 31.7957C312.689 32.8633 315.679 34.9985 317.859 36.5256C320.04 38.0526 321.321 38.9067 322.641 39.7867" stroke="#DA8836" stroke-width="6" stroke-linecap="round"/>
</svg>
